<svg version="1.1" id="Layer_1" xmlns="http://www.w3.org/2000/svg" xmlns:xlink="http://www.w3.org/1999/xlink" x="0px" y="0px"
	 width="100%" viewBox="0 0 784 1024" enable-background="new 0 0 784 1024" xml:space="preserve">
<path fill="#39FF14" opacity="1.000000" stroke="none" 
	d="
M315.326294,562.309814 
	C307.667633,564.384399 304.739044,568.487854 304.476807,577.755737 
	C304.260284,585.409729 304.306732,593.075928 304.442078,600.732971 
	C304.501862,604.116333 303.336426,605.493530 299.823608,605.453918 
	C287.992615,605.320557 289.852844,606.128845 289.714722,595.750183 
	C289.621674,588.757629 289.780396,581.761169 289.650391,574.769775 
	C289.498077,566.578308 285.860901,562.334045 279.210938,562.268372 
	C272.750305,562.204590 267.680084,567.182373 267.414124,574.546936 
	C267.107880,583.028809 267.150421,591.532471 267.349426,600.019409 
	C267.442322,603.979980 266.416107,605.622925 262.064392,605.523743 
	C251.672928,605.286743 251.549500,605.492493 252.197159,595.044556 
	C253.001785,582.064453 252.468216,569.079041 252.437576,556.101501 
	C252.426743,551.511719 253.954834,550.307312 258.179504,550.613831 
	C261.975189,550.889221 266.257019,549.790100 266.519897,556.300049 
	C271.955688,551.719604 277.425659,549.327026 284.174133,549.515381 
	C291.054688,549.707458 296.263519,552.575867 301.005127,557.882568 
	C306.690155,552.129517 313.171356,549.195129 321.208893,549.570129 
	C331.814850,550.064941 339.370483,555.942566 341.156982,566.327454 
	C343.202881,578.220215 341.932556,590.242493 342.127075,602.207825 
	C342.164703,604.520386 340.983093,605.545898 338.715973,605.420227 
	C338.384003,605.401794 338.050049,605.422729 337.717041,605.419067 
	C325.481415,605.286255 326.971680,606.724121 326.872864,594.923279 
	C326.811554,587.597290 326.987061,580.263916 326.715637,572.946533 
	C326.445312,565.657776 323.104004,562.620483 315.326294,562.309814 
z"/>
<path fill="#39FF14" opacity="1.000000" stroke="none" 
	d="
M599.661011,551.328735 
	C599.665649,544.424255 599.832520,537.929504 599.610718,531.447937 
	C599.481995,527.689148 600.662720,526.076111 604.623718,525.964355 
	C614.452332,525.687134 614.417419,525.540833 614.409912,535.369019 
	C614.394104,556.167847 614.510803,576.967651 614.295532,597.764221 
	C614.268799,600.350342 616.668213,604.583923 611.534668,605.430603 
	C604.178223,606.643921 601.674011,605.497009 599.434753,599.758728 
	C592.427307,606.211121 584.384155,608.650452 575.179871,606.162354 
	C569.340698,604.583923 564.625916,601.350647 560.974060,596.567810 
	C552.666931,585.687622 553.033508,568.850403 561.771851,558.558838 
	C570.712585,548.028931 583.399902,546.765442 598.738525,554.890686 
	C599.984924,554.120911 599.494202,552.833679 599.661011,551.328735 
M570.351257,575.972717 
	C570.352844,577.468445 570.195068,578.984680 570.384644,580.456238 
	C571.066101,585.747620 573.611938,589.963928 578.502258,592.227173 
	C583.658264,594.613403 588.838379,594.413025 593.618896,590.963867 
	C599.135925,586.983276 601.258667,579.618408 598.918701,572.634766 
	C596.878540,566.545959 591.253906,562.448303 584.956787,562.463196 
	C577.949402,562.479858 572.788025,566.984436 570.351257,575.972717 
z"/>
<path fill="#39FF14" opacity="1.000000" stroke="none" 
	d="
M429.436401,556.585083 
	C427.660278,563.892944 427.526520,570.861206 429.427002,577.696899 
	C433.070007,590.800293 446.654083,597.106018 459.151398,591.717590 
	C462.327728,590.348083 464.701599,588.135620 466.389893,585.121704 
	C468.390381,581.550537 479.168701,578.904663 482.609772,581.184631 
	C484.733673,582.591919 483.522095,584.575623 482.968719,586.151733 
	C478.954010,597.585876 470.627777,604.116821 458.919098,606.186523 
	C428.425110,611.576904 409.640503,589.970764 413.124756,560.720764 
	C415.056610,544.503052 423.247955,532.695557 439.877960,528.327637 
	C456.064728,524.076111 472.904907,529.819824 480.014252,542.008789 
	C481.997040,545.408264 485.050781,549.523071 482.995880,552.992676 
	C481.304474,555.848389 476.511963,553.916260 473.104797,554.177490 
	C470.553497,554.373169 468.219299,554.211121 467.025360,551.147949 
	C463.986115,543.350220 457.622833,540.974976 449.838867,540.954102 
	C441.600952,540.932007 435.389221,544.288757 431.459625,551.591858 
	C430.675690,553.048767 430.166718,554.653687 429.436401,556.585083 
z"/>
<path fill="#39FF14" opacity="1.000000" stroke="none" 
	d="
M402.510437,418.065369 
	C408.302124,414.553589 413.845947,411.267029 420.451721,407.350891 
	C412.796051,403.016998 406.110199,399.147064 399.328278,395.453552 
	C397.662506,394.546326 396.152130,395.892395 394.730103,396.723358 
	C384.247284,402.848877 373.779358,408.999908 363.276733,415.091278 
	C362.306396,415.654053 360.925690,416.433014 360.078156,416.135529 
	C354.030273,414.012634 348.209412,411.402588 342.799957,406.721130 
	C351.588837,401.663818 359.628754,397.029144 367.676788,392.408661 
	C376.912933,387.106049 386.173065,381.844940 395.382263,376.496033 
	C397.203125,375.438446 398.810669,374.687164 400.919220,375.878784 
	C417.861237,385.453522 434.841522,394.960571 451.788727,404.526245 
	C452.609802,404.989685 453.230621,405.807831 453.789520,406.318909 
	C453.789001,407.581757 453.162140,408.116028 452.432312,408.549469 
	C441.850220,414.834961 431.244812,421.081573 420.694061,427.419128 
	C418.287506,428.864655 416.204010,428.960266 413.768005,427.388397 
	C410.839111,425.498474 407.626068,424.054749 404.622955,422.271454 
	C403.203461,421.428528 400.834045,420.917023 402.510437,418.065369 
z"/>
<path fill="#39FF14" opacity="1.000000" stroke="none" 
	d="
M153.633148,576.153809 
	C148.841690,576.219849 144.507004,576.353577 140.178375,576.245239 
	C137.154068,576.169556 136.000626,577.489075 136.028091,580.420349 
	C136.092087,587.251465 135.932770,594.085266 136.040604,600.915100 
	C136.094543,604.331726 134.799835,605.584229 131.301239,605.494263 
	C119.130272,605.181335 120.819321,606.612976 120.769295,595.180664 
	C120.682518,575.351685 120.739708,555.521912 120.752266,535.692505 
	C120.756706,528.669495 120.777657,528.651428 127.994484,528.636658 
	C135.992828,528.620300 143.992249,528.561829 151.989410,528.663513 
	C166.478760,528.847656 175.741089,536.953247 177.124313,550.521423 
	C178.400528,563.039734 170.394379,572.818237 156.545959,575.651306 
	C155.730438,575.818176 154.910416,575.963074 153.633148,576.153809 
M138.943878,541.079956 
	C136.898605,541.288025 136.091629,542.568848 136.086166,544.468994 
	C136.070877,549.781677 136.072296,555.094482 136.092178,560.407166 
	C136.099380,562.328735 136.906906,563.650330 139.015381,563.634583 
	C143.658478,563.600037 148.367569,563.964844 152.927780,563.313232 
	C159.231827,562.412415 162.158966,557.837891 161.699081,550.954651 
	C161.308716,545.111938 157.964371,541.680847 151.799820,541.228333 
	C147.833771,540.937195 143.836975,541.064697 138.943878,541.079956 
z"/>
<path fill="#39FF14" opacity="1.000000" stroke="none" 
	d="
M644.369385,606.088745 
	C630.649719,601.564758 623.455994,591.591675 623.737915,577.941101 
	C624.020264,564.266052 631.722900,553.223694 644.123840,550.445129 
	C663.336731,546.140259 677.882446,555.928101 679.953613,574.218994 
	C680.716980,580.960510 679.672729,582.211914 672.990601,582.228638 
	C663.340576,582.252686 653.690369,582.190552 644.040466,582.231323 
	C639.078064,582.252258 638.195251,583.917664 640.715149,588.245178 
	C644.555420,594.839966 654.408386,597.282104 659.641174,591.771790 
	C665.111267,586.011597 671.011597,588.146179 677.032227,587.876526 
	C677.266785,600.319092 662.067810,608.727661 644.369385,606.088745 
M652.484741,572.023987 
	C656.222046,571.793030 660.028015,572.565918 663.709778,571.467224 
	C663.173462,565.300903 658.859680,561.675903 652.254028,561.645935 
	C645.789551,561.616699 640.753540,565.681091 640.214905,571.488098 
	C643.926392,572.592407 647.746704,571.792175 652.484741,572.023987 
z"/>
<path fill="#39FF14" opacity="1.000000" stroke="none" 
	d="
M366.914673,551.557373 
	C376.368561,548.694031 385.352386,548.201721 393.777740,553.382446 
	C403.037201,559.075989 406.672974,567.711487 406.324280,578.356018 
	C406.205963,581.967285 403.969177,582.223816 401.267395,582.217529 
	C391.277557,582.194336 381.287598,582.186279 371.297760,582.208008 
	C369.506500,582.211853 367.642151,581.854980 365.665710,582.993530 
	C365.663544,587.870300 368.459869,590.952209 372.423920,593.030029 
	C377.275360,595.572998 382.715759,595.686707 386.338654,591.655151 
	C391.663544,585.729492 397.681854,588.187683 403.744507,587.965698 
	C402.792053,597.993652 392.574951,606.049438 380.238373,607.066711 
	C367.026093,608.156189 354.826904,600.046753 351.527161,587.111450 
	C347.816132,572.563721 352.916748,557.713928 366.914673,551.557373 
M377.004395,561.768555 
	C369.629242,563.588257 366.881073,566.199036 366.693756,571.909851 
	C374.552521,571.948792 382.404572,572.522034 390.289062,571.537720 
	C389.304718,564.801025 386.013336,562.345032 377.004395,561.768555 
z"/>
<path fill="#39FF14" opacity="1.000000" stroke="none" 
	d="
M497.324646,596.555603 
	C487.497406,580.804321 490.330536,562.574951 503.917847,553.909546 
	C513.234619,547.967712 523.230042,547.765320 532.881653,552.681091 
	C542.554688,557.607788 547.323120,566.016174 547.408081,576.989136 
	C547.514404,590.717712 541.748535,600.310730 530.565552,604.839050 
	C518.688782,609.648254 506.659637,606.734680 497.324646,596.555603 
M507.523376,584.768555 
	C510.374390,591.234985 514.532654,594.114990 520.434631,593.711060 
	C526.165222,593.318848 530.097717,589.447571 531.942688,582.963928 
	C533.151794,578.714966 532.580200,574.700134 531.175049,570.733826 
	C529.437683,565.829895 524.166748,562.265381 519.232361,562.406799 
	C513.796997,562.562500 509.069183,566.285706 507.538544,571.717224 
	C506.392700,575.783203 505.970001,579.885742 507.523376,584.768555 
z"/>
<path fill="#39FF14" opacity="1.000000" stroke="none" 
	d="
M340.680664,479.999939 
	C340.680054,456.381927 340.680054,433.263916 340.680054,408.856659 
	C346.846039,412.387329 352.133362,415.298340 357.280670,418.438812 
	C358.681274,419.293365 358.261749,421.171997 358.264893,422.644379 
	C358.324799,450.802917 358.330231,478.961670 358.453400,507.119904 
	C358.468903,510.671082 357.281921,512.332947 353.568390,512.291443 
	C337.844513,512.115906 341.008636,514.271545 340.691620,499.994110 
	C340.547394,493.499176 340.676270,486.998199 340.680664,479.999939 
z"/>
<path fill="#39FF14" opacity="1.000000" stroke="none" 
	d="
M184.595520,595.757568 
	C184.579697,581.954895 184.667419,568.621277 184.473328,555.291809 
	C184.423004,551.836914 185.418854,550.241394 188.956116,550.679626 
	C189.120117,550.700012 189.289139,550.676758 189.455688,550.680115 
	C199.102142,550.874084 196.815048,549.892212 199.115524,558.064331 
	C202.953979,555.087891 206.395401,551.745178 211.132629,550.377502 
	C217.764130,548.463013 219.185226,549.396790 219.192245,556.264221 
	C219.193939,557.930603 219.143814,559.597229 219.158920,561.263367 
	C219.183350,563.957153 217.852356,564.962158 215.186234,565.228210 
	C202.053284,566.538391 199.337921,569.636169 199.312103,582.890076 
	C199.300110,589.056152 199.205002,595.224304 199.335144,601.387512 
	C199.398041,604.366943 198.346924,605.792358 195.278580,605.438782 
	C194.784958,605.381897 194.279572,605.424011 193.779633,605.425659 
	C184.451904,605.456848 184.451904,605.456970 184.595520,595.757568 
z"/>
<path fill="#39FF14" opacity="1.000000" stroke="none" 
	d="
M457.293762,459.973877 
	C457.046387,464.076935 457.857300,467.759186 456.360962,472.291260 
	C450.482910,469.678436 445.214874,466.458740 440.147308,462.932404 
	C439.478699,462.467072 439.492859,460.780548 439.476105,459.655396 
	C439.300323,447.847412 439.240845,436.037476 439.018707,424.230530 
	C438.936279,419.847107 440.607605,416.907837 444.868164,415.515320 
	C448.925995,414.189026 451.800110,410.405151 457.293762,409.527222 
	C457.293762,426.446350 457.293762,442.963013 457.293762,459.973877 
z"/>
<path fill="#39FF14" opacity="1.000000" stroke="none" 
	d="
M360.917603,476.380402 
	C360.759796,472.163666 362.611481,469.655975 365.818604,467.945190 
	C366.842407,467.399017 367.763824,466.663422 368.777008,466.094391 
	C381.190277,459.123108 376.777985,459.410309 388.530151,467.304504 
	C390.867401,468.874451 391.682007,471.101196 388.935699,472.217316 
	C379.852448,475.908722 381.186615,483.606049 381.500336,490.715363 
	C381.713959,495.556824 380.137695,498.432739 375.668243,500.376007 
	C371.137299,502.346039 366.904327,505.001221 361.130890,508.117279 
	C360.660553,497.078491 360.939056,486.948669 360.917603,476.380402 
z"/>
<path fill="#39FF14" opacity="1.000000" stroke="none" 
	d="
M240.955872,580.000000 
	C240.935349,587.156677 240.875290,593.813477 240.909485,600.469910 
	C240.927277,603.934570 239.619522,605.528503 235.863663,605.464966 
	C224.300781,605.269348 225.814407,606.227417 225.746231,595.728577 
	C225.660873,582.581787 225.881042,569.431213 225.646179,556.288147 
	C225.566940,551.853149 227.124908,550.531799 231.431946,550.597229 
	C240.903976,550.741089 240.902435,550.549500 240.912354,560.028687 
	C240.919144,566.519104 240.940521,573.009583 240.955872,580.000000 
z"/>
<path fill="#39FF14" opacity="1.000000" stroke="none" 
	d="
M434.070923,466.085999 
	C436.663544,464.177704 438.881134,464.281097 441.289459,465.820953 
	C444.510437,467.880371 447.959564,469.588165 451.142670,471.700195 
	C453.878906,473.515717 454.178192,475.396576 450.850067,477.236023 
	C440.218414,483.112335 429.657990,489.117554 419.073761,495.079559 
	C417.591034,495.914734 416.091095,496.709045 414.388336,495.748444 
	C409.365601,492.915009 404.361267,490.048920 398.423035,486.667969 
	C410.851715,479.495026 422.307587,472.883514 434.070923,466.085999 
z"/>
<path fill="#39FF14" opacity="1.000000" stroke="none" 
	d="
M391.642090,463.334290 
	C382.949219,461.644745 380.478424,456.349060 381.674530,448.477386 
	C382.020050,446.203491 381.724487,443.831573 381.716217,441.504608 
	C381.673767,429.587891 385.719330,424.652588 398.000275,421.643799 
	C399.444366,424.850494 399.962921,459.098114 398.637817,466.083649 
	C395.891632,466.632477 394.236237,464.219727 391.642090,463.334290 
z"/>
<path fill="#39FF14" opacity="1.000000" stroke="none" 
	d="
M226.035339,539.921509 
	C223.194794,535.755310 223.478149,531.911133 226.735718,528.794495 
	C230.093231,525.582275 234.287933,525.536682 238.278809,527.670959 
	C242.007980,529.665344 243.035431,533.116821 242.014969,537.043579 
	C240.334106,543.511658 232.582458,545.030090 226.035339,539.921509 
z"/>
</svg>