<svg version="1.1" id="Layer_1" xmlns="http://www.w3.org/2000/svg" xmlns:xlink="http://www.w3.org/1999/xlink" x="0px" y="0px"
	 viewBox="330 370 140 150" enable-background="new 330 370 140 150" xml:space="preserve">
<path fill="#39FF14" opacity="1.000000" stroke="none" 
	d="
M402.510437,418.065369 
	C408.302124,414.553589 413.845947,411.267029 420.451721,407.350891 
	C412.796051,403.016998 406.110199,399.147064 399.328278,395.453552 
	C397.662506,394.546326 396.152130,395.892395 394.730103,396.723358 
	C384.247284,402.848877 373.779358,408.999908 363.276733,415.091278 
	C362.306396,415.654053 360.925690,416.433014 360.078156,416.135529 
	C354.030273,414.012634 348.209412,411.402588 342.799957,406.721130 
	C351.588837,401.663818 359.628754,397.029144 367.676788,392.408661 
	C376.912933,387.106049 386.173065,381.844940 395.382263,376.496033 
	C397.203125,375.438446 398.810669,374.687164 400.919220,375.878784 
	C417.861237,385.453522 434.841522,394.960571 451.788727,404.526245 
	C452.609802,404.989685 453.230621,405.807831 453.789520,406.318909 
	C453.789001,407.581757 453.162140,408.116028 452.432312,408.549469 
	C441.850220,414.834961 431.244812,421.081573 420.694061,427.419128 
	C418.287506,428.864655 416.204010,428.960266 413.768005,427.388397 
	C410.839111,425.498474 407.626068,424.054749 404.622955,422.271454 
	C403.203461,421.428528 400.834045,420.917023 402.510437,418.065369 
z"/>
<path fill="#39FF14" opacity="1.000000" stroke="none" 
	d="
M340.680664,479.999939 
	C340.680054,456.381927 340.680054,433.263916 340.680054,408.856659 
	C346.846039,412.387329 352.133362,415.298340 357.280670,418.438812 
	C358.681274,419.293365 358.261749,421.171997 358.264893,422.644379 
	C358.324799,450.802917 358.330231,478.961670 358.453400,507.119904 
	C358.468903,510.671082 357.281921,512.332947 353.568390,512.291443 
	C337.844513,512.115906 341.008636,514.271545 340.691620,499.994110 
	C340.547394,493.499176 340.676270,486.998199 340.680664,479.999939 
z"/>
<path fill="#39FF14" opacity="1.000000" stroke="none" 
	d="
M457.293762,459.973877 
	C457.046387,464.076935 457.857300,467.759186 456.360962,472.291260 
	C450.482910,469.678436 445.214874,466.458740 440.147308,462.932404 
	C439.478699,462.467072 439.492859,460.780548 439.476105,459.655396 
	C439.300323,447.847412 439.240845,436.037476 439.018707,424.230530 
	C438.936279,419.847107 440.607605,416.907837 444.868164,415.515320 
	C448.925995,414.189026 451.800110,410.405151 457.293762,409.527222 
	C457.293762,426.446350 457.293762,442.963013 457.293762,459.973877 
z"/>
<path fill="#39FF14" opacity="1.000000" stroke="none" 
	d="
M360.917603,476.380402 
	C360.759796,472.163666 362.611481,469.655975 365.818604,467.945190 
	C366.842407,467.399017 367.763824,466.663422 368.777008,466.094391 
	C381.190277,459.123108 376.777985,459.410309 388.530151,467.304504 
	C390.867401,468.874451 391.682007,471.101196 388.935699,472.217316 
	C379.852448,475.908722 381.186615,483.606049 381.500336,490.715363 
	C381.713959,495.556824 380.137695,498.432739 375.668243,500.376007 
	C371.137299,502.346039 366.904327,505.001221 361.130890,508.117279 
	C360.660553,497.078491 360.939056,486.948669 360.917603,476.380402 
z"/>
<path fill="#39FF14" opacity="1.000000" stroke="none" 
	d="
M434.070923,466.085999 
	C436.663544,464.177704 438.881134,464.281097 441.289459,465.820953 
	C444.510437,467.880371 447.959564,469.588165 451.142670,471.700195 
	C453.878906,473.515717 454.178192,475.396576 450.850067,477.236023 
	C440.218414,483.112335 429.657990,489.117554 419.073761,495.079559 
	C417.591034,495.914734 416.091095,496.709045 414.388336,495.748444 
	C409.365601,492.915009 404.361267,490.048920 398.423035,486.667969 
	C410.851715,479.495026 422.307587,472.883514 434.070923,466.085999 
z"/>
<path fill="#39FF14" opacity="1.000000" stroke="none" 
	d="
M391.642090,463.334290 
	C382.949219,461.644745 380.478424,456.349060 381.674530,448.477386 
	C382.020050,446.203491 381.724487,443.831573 381.716217,441.504608 
	C381.673767,429.587891 385.719330,424.652588 398.000275,421.643799 
	C399.444366,424.850494 399.962921,459.098114 398.637817,466.083649 
	C395.891632,466.632477 394.236237,464.219727 391.642090,463.334290 
z"/>
</svg>
